# xmcd
#
# Track frame offsets:
#	150
#	16227
#	36925
#	54450
#	71097
#	89257
#	111192
#	132600
#	150625
#	169520
#	188240
#	206490
#	223347
#	239575
#	258550
#	279120
#	296815
#	318247
#
# Disc length: 4494 seconds
#
# Revision: 3
# Processed by: cddbd v1.5.2PL0 Copyright (c) Steve Scherf et al.
# Submitted via: audiograbber 1.83.01
#
DISCID=11118c12
DTITLE=Various Artist - No Sweat Volume 2
DYEAR=1997
DGENRE=R&B
TTITLE0=Buckshot Lefonque - Another Day
TTITLE1=Genuwine - When Doves Cry
TTITLE2=Shola Ama - You're The One I Love
TTITLE3=Coolio - C U When U Get There
TTITLE4=Lakiesha Berri - Like This and Like That
TTITLE5=R-Kelly - Gotham City
TTITLE6=Brownstone - Kiss And Tell
TTITLE7=Mary J Blige - Everything
TTITLE8=Keath Sweat - Twisted
TTITLE9=Changing Faces - G.h.e.t.t.o.u.t.
TTITLE10=1-Accord - Don't Stop, Don't Quit
TTITLE11=Puff Johnson - All Over Your Face
TTITLE12=K-Ci and Jojo - You Bring Me Up
TTITLE13=Erykah Badu - Next Lifetime
TTITLE14=Rahsaan Patterson - Stop By
TTITLE15=The Braxtons - Slow Flow
TTITLE16=Joe - The Love Scene
TTITLE17=En Vogue - Whatever
EXTD=
EXTT0=Buckshot Lefonque
EXTT1=Ginuwine
EXTT2=Shola Ama
EXTT3=Coolio
EXTT4=Lakiesha Berri
EXTT5=R-Kelly
EXTT6=Brownstone
EXTT7=Mary J Blige
EXTT8=Keith Sweat
EXTT9=Changing Faces
EXTT10=1-Accord
EXTT11=Puff Johnson
EXTT12=K-Ci and Jojo
EXTT13=Erykah Badu
EXTT14=Rahsaan Patterson
EXTT15=The Braxtons
EXTT16=Joe
EXTT17=En Vogue
PLAYORDER=
